<svg xmlns="http://www.w3.org/2000/svg" viewBox="0 0 100 70.64"><defs><style>.cls-1{fill:#fdb913;}.cls-2{fill:#414042;}</style></defs><g id="Layer_2" data-name="Layer 2"><g id="Layer_2-2" data-name="Layer 2"><path class="cls-1" d="M65.5,25.12A25.13,25.13,0,1,0,40.37,50.24H52.93V37.67H40.37A12.55,12.55,0,1,1,52.93,25.12Z"/><rect class="cls-2" x="65.52" y="37.67" width="12.55" height="12.57"/><path d="M.75,62.08a5.42,5.42,0,0,1,2.05-2,5.76,5.76,0,0,1,2.84-.72,5.76,5.76,0,0,1,3.14.86,5,5,0,0,1,2,2.45H8.59a2.9,2.9,0,0,0-1.19-1.3,3.58,3.58,0,0,0-1.76-.43,3.89,3.89,0,0,0-2,.5,3.44,3.44,0,0,0-1.34,1.41,5,5,0,0,0,0,4.29,3.53,3.53,0,0,0,1.34,1.42,3.89,3.89,0,0,0,2,.5,3.48,3.48,0,0,0,1.76-.43,2.85,2.85,0,0,0,1.19-1.3h2.18a4.87,4.87,0,0,1-2,2.44,5.76,5.76,0,0,1-3.14.86A5.68,5.68,0,0,1,2.8,69.9a5.42,5.42,0,0,1-2-2A5.68,5.68,0,0,1,0,65,5.62,5.62,0,0,1,.75,62.08Z"/><path d="M15.08,69.92a5.45,5.45,0,0,1-2.05-2A5.72,5.72,0,0,1,12.28,65a5.62,5.62,0,0,1,.75-2.9,5.35,5.35,0,0,1,2.05-2,5.74,5.74,0,0,1,2.84-.72,5.8,5.8,0,0,1,2.85.72,5.32,5.32,0,0,1,2,2,5.61,5.61,0,0,1,.74,2.9,5.71,5.71,0,0,1-.74,2.92,5.42,5.42,0,0,1-2,2,5.8,5.8,0,0,1-2.85.72A5.74,5.74,0,0,1,15.08,69.92Zm4.79-1.35a3.49,3.49,0,0,0,1.34-1.43A4.65,4.65,0,0,0,21.7,65a4.56,4.56,0,0,0-.49-2.14,3.38,3.38,0,0,0-1.34-1.41,4.07,4.07,0,0,0-3.91,0,3.38,3.38,0,0,0-1.34,1.41A4.56,4.56,0,0,0,14.14,65a4.65,4.65,0,0,0,.48,2.16A3.49,3.49,0,0,0,16,68.57a4.07,4.07,0,0,0,3.91,0Z"/><path d="M34.4,70.53H32.59l-5.45-8.25v8.25H25.33V59.47h1.81l5.45,8.23V59.47H34.4Z"/><path d="M43.92,59.49V61H41v9.56H39.17V61h-3V59.49Z"/><path d="M47.94,69.92a5.52,5.52,0,0,1-2-2A5.72,5.72,0,0,1,45.14,65a5.62,5.62,0,0,1,.75-2.9,5.42,5.42,0,0,1,2-2,6,6,0,0,1,5.69,0,5.32,5.32,0,0,1,2,2,5.62,5.62,0,0,1,.75,2.9,5.72,5.72,0,0,1-.75,2.92,5.42,5.42,0,0,1-2,2,6,6,0,0,1-5.69,0Zm4.79-1.35a3.49,3.49,0,0,0,1.34-1.43A4.53,4.53,0,0,0,54.56,65a4.45,4.45,0,0,0-.49-2.14,3.38,3.38,0,0,0-1.34-1.41,3.82,3.82,0,0,0-1.95-.5,3.89,3.89,0,0,0-2,.5,3.44,3.44,0,0,0-1.34,1.41A4.56,4.56,0,0,0,47,65a4.65,4.65,0,0,0,.48,2.16,3.56,3.56,0,0,0,1.34,1.43,3.89,3.89,0,0,0,2,.5A3.82,3.82,0,0,0,52.73,68.57Z"/><path d="M60,59.49v7a2.51,2.51,0,1,0,5,0v-7H66.8v7a4.23,4.23,0,0,1-.58,2.29,3.75,3.75,0,0,1-1.58,1.4,5.35,5.35,0,0,1-4.34,0,3.61,3.61,0,0,1-1.55-1.4,4.32,4.32,0,0,1-.57-2.29v-7Z"/><path d="M74.89,70.53l-2.54-4.42H71v4.42H69.16v-11H73a4.85,4.85,0,0,1,2.15.44,3.14,3.14,0,0,1,1.32,1.19,3.43,3.43,0,0,1-.19,3.63A3.17,3.17,0,0,1,74.32,66l2.73,4.58ZM71,64.67h2a2.09,2.09,0,0,0,1.53-.51A1.86,1.86,0,0,0,75,62.79a1.76,1.76,0,0,0-.51-1.34A2.17,2.17,0,0,0,73,61H71Z"/><path d="M88.26,70.53H86.45L81,62.28v8.25H79.19V59.47H81l5.45,8.23V59.47h1.81Z"/><path d="M97.3,68.27H92.68l-.8,2.26H90l4-11.06h2.1l4,11.06H98.09Zm-.51-1.48L95,61.66l-1.81,5.13Z"/></g></g></svg>